<svg xmlns="http://www.w3.org/2000/svg" viewBox="0 0 128 128"><defs>
  <radialGradient id="night" cx="50%" cy="25%" r="85%"><stop offset="0" stop-color="#1d4038"/><stop offset=".5" stop-color="#0f211d"/><stop offset="1" stop-color="#060c0b"/></radialGradient>
  <linearGradient id="wire" x1="0" y1="0" x2="0" y2="1"><stop offset="0" stop-color="#2a9b74"/><stop offset="1" stop-color="#1f7a5c"/></linearGradient>
</defs><g transform="translate(64 64) scale(1.34) translate(-64 -66)"><g transform="translate(0 -3)"><ellipse cx="34.86" cy="33" rx="4.6" ry="8.5" transform="rotate(-22 34.86 33)" fill="none" stroke="url(#wire)" stroke-width="2.4"/><ellipse cx="44.57" cy="33" rx="4.6" ry="8.5" transform="rotate(-22 44.57 33)" fill="none" stroke="url(#wire)" stroke-width="2.4"/><ellipse cx="54.29" cy="33" rx="4.6" ry="8.5" transform="rotate(-22 54.29 33)" fill="none" stroke="url(#wire)" stroke-width="2.4"/><ellipse cx="64.00" cy="33" rx="4.6" ry="8.5" transform="rotate(-22 64.00 33)" fill="none" stroke="url(#wire)" stroke-width="2.4"/><ellipse cx="73.71" cy="33" rx="4.6" ry="8.5" transform="rotate(-22 73.71 33)" fill="none" stroke="url(#wire)" stroke-width="2.4"/><ellipse cx="83.43" cy="33" rx="4.6" ry="8.5" transform="rotate(-22 83.43 33)" fill="none" stroke="url(#wire)" stroke-width="2.4"/><ellipse cx="93.14" cy="33" rx="4.6" ry="8.5" transform="rotate(-22 93.14 33)" fill="none" stroke="url(#wire)" stroke-width="2.4"/><path d="M30 33 h68 v68 a10 10 0 0 1 -10 10 h-48 a10 10 0 0 1 -10 -10 z" fill="#4f8f78"/><path d="M30 33 h68 v65.5 a10 10 0 0 1 -10 10 h-48 a10 10 0 0 1 -10 -10 z" fill="#6fb092"/><path d="M30 33 h68 v63 a10 10 0 0 1 -10 10 h-48 a10 10 0 0 1 -10 -10 z" fill="#8cc7ab"/><path d="M30 33 h68 v60 a10 10 0 0 1 -10 10 h-48 a10 10 0 0 1 -10 -10 z" fill="#a8d9c3"/><rect x="30" y="33" width="68" height="10" fill="#000" opacity=".05"/><circle cx="36.06" cy="40" r="2.6" fill="#4f8f78"/><path d="M39.00 31 C 39.50 35, 37.56 37, 36.06 40" fill="none" stroke="url(#wire)" stroke-width="2.4" stroke-linecap="round"/><circle cx="45.77" cy="40" r="2.6" fill="#4f8f78"/><path d="M48.71 31 C 49.21 35, 47.27 37, 45.77 40" fill="none" stroke="url(#wire)" stroke-width="2.4" stroke-linecap="round"/><circle cx="55.49" cy="40" r="2.6" fill="#4f8f78"/><path d="M58.43 31 C 58.93 35, 56.99 37, 55.49 40" fill="none" stroke="url(#wire)" stroke-width="2.4" stroke-linecap="round"/><circle cx="65.20" cy="40" r="2.6" fill="#4f8f78"/><path d="M68.14 31 C 68.64 35, 66.70 37, 65.20 40" fill="none" stroke="url(#wire)" stroke-width="2.4" stroke-linecap="round"/><circle cx="74.91" cy="40" r="2.6" fill="#4f8f78"/><path d="M77.85 31 C 78.35 35, 76.41 37, 74.91 40" fill="none" stroke="url(#wire)" stroke-width="2.4" stroke-linecap="round"/><circle cx="84.63" cy="40" r="2.6" fill="#4f8f78"/><path d="M87.57 31 C 88.07 35, 86.13 37, 84.63 40" fill="none" stroke="url(#wire)" stroke-width="2.4" stroke-linecap="round"/><circle cx="94.34" cy="40" r="2.6" fill="#4f8f78"/><path d="M97.28 31 C 97.78 35, 95.84 37, 94.34 40" fill="none" stroke="url(#wire)" stroke-width="2.4" stroke-linecap="round"/><g transform="translate(64 71) scale(0.82)"><path d="M-14 -10 a14 14 0 1 1 21 12 c-5.5 3 -7 6 -7 12" fill="none" stroke="#1f5f4a" stroke-width="8" stroke-linecap="round"/><circle cx="0" cy="26" r="5" fill="#1f5f4a"/></g></g></g></svg>
