<svg xmlns="http://www.w3.org/2000/svg" viewBox="0 0 128 128"><defs>
  <radialGradient id="night" cx="50%" cy="25%" r="85%"><stop offset="0" stop-color="#1d4038"/><stop offset=".5" stop-color="#0f211d"/><stop offset="1" stop-color="#060c0b"/></radialGradient>
  <linearGradient id="wire" x1="0" y1="0" x2="0" y2="1"><stop offset="0" stop-color="#2a9b74"/><stop offset="1" stop-color="#1f7a5c"/></linearGradient>
</defs><g transform="translate(64 64) scale(1.34) translate(-64 -66)"><g transform="translate(0 -3)"><ellipse cx="38.50" cy="33" rx="4.6" ry="8.5" transform="rotate(-22 38.50 33)" fill="none" stroke="url(#wire)" stroke-width="3.2"/><ellipse cx="55.50" cy="33" rx="4.6" ry="8.5" transform="rotate(-22 55.50 33)" fill="none" stroke="url(#wire)" stroke-width="3.2"/><ellipse cx="72.50" cy="33" rx="4.6" ry="8.5" transform="rotate(-22 72.50 33)" fill="none" stroke="url(#wire)" stroke-width="3.2"/><ellipse cx="89.50" cy="33" rx="4.6" ry="8.5" transform="rotate(-22 89.50 33)" fill="none" stroke="url(#wire)" stroke-width="3.2"/><path d="M30 33 h68 v68 a10 10 0 0 1 -10 10 h-48 a10 10 0 0 1 -10 -10 z" fill="#4f8f78"/><path d="M30 33 h68 v65.5 a10 10 0 0 1 -10 10 h-48 a10 10 0 0 1 -10 -10 z" fill="#6fb092"/><path d="M30 33 h68 v63 a10 10 0 0 1 -10 10 h-48 a10 10 0 0 1 -10 -10 z" fill="#8cc7ab"/><path d="M30 33 h68 v60 a10 10 0 0 1 -10 10 h-48 a10 10 0 0 1 -10 -10 z" fill="#a8d9c3"/><rect x="30" y="33" width="68" height="10" fill="#000" opacity=".05"/><circle cx="39.70" cy="40" r="2.6" fill="#4f8f78"/><path d="M42.64 31 C 43.14 35, 41.20 37, 39.70 40" fill="none" stroke="url(#wire)" stroke-width="3.2" stroke-linecap="round"/><circle cx="56.70" cy="40" r="2.6" fill="#4f8f78"/><path d="M59.64 31 C 60.14 35, 58.20 37, 56.70 40" fill="none" stroke="url(#wire)" stroke-width="3.2" stroke-linecap="round"/><circle cx="73.70" cy="40" r="2.6" fill="#4f8f78"/><path d="M76.64 31 C 77.14 35, 75.20 37, 73.70 40" fill="none" stroke="url(#wire)" stroke-width="3.2" stroke-linecap="round"/><circle cx="90.70" cy="40" r="2.6" fill="#4f8f78"/><path d="M93.64 31 C 94.14 35, 92.20 37, 90.70 40" fill="none" stroke="url(#wire)" stroke-width="3.2" stroke-linecap="round"/><g transform="translate(64 71) scale(0.95)"><path d="M-14 -10 a14 14 0 1 1 21 12 c-5.5 3 -7 6 -7 12" fill="none" stroke="#1f5f4a" stroke-width="8" stroke-linecap="round"/><circle cx="0" cy="26" r="5" fill="#1f5f4a"/></g></g></g></svg>
